# xmcd
#
# Track frame offsets: 
#        150
#        23147
#        33864
#        49529
#        61731
#        75346
#        86932
#        98624
#        110870
#        120879
#        132997
#        145640
#        158910
#        173159
#        182213
#        194187
#        209058
#        221825
#        234361
#        246869
#
# Disc length: 3489 seconds
#
# Revision: 0
# Processed by: cddbd v1.5.2PL0 Copyright (c) Steve Scherf et al.
# Submitted via: ExactAudioCopy v1.1
#
DISCID=170d9f14
DTITLE=Various Artist - Rocked By The Hand Of Clapton [CD2)
DYEAR=2014
DGENRE=Blues
TTITLE0=Ray Charles - What'd I Say?
TTITLE1=Junior Parker - Mystery Train
TTITLE2=Ernestine Schumann-Heink - Danny Boy
TTITLE3=Ted Daffan's Texan's - Born To Lose
TTITLE4=Robert Johnson - Sweet Home Chicago
TTITLE5=Lil Son Jackson - Travelin' Alone
TTITLE6=The Johnny Otis Show - Willie And The Hand Jive
TTITLE7=Little Walter - Last Night
TTITLE8=Jimmy Reed - Ain't That Lovin' You
TTITLE9=Jazz Gillum - Key To The Highway
TTITLE10=The Prisonaires - Just Walking In The Rain
TTITLE11=Clyde McPhatter And The Drifters - Money Honey
TTITLE12=Lowell Fulson - Reconsider Baby
TTITLE13=Memphis Slim - Steppin' Out
TTITLE14=John Greer And The Rhythm Rockers - Got You On My Mind
TTITLE15=Mose Allison - Parchman Farm
TTITLE16=The Crickets - Someone, Someone
TTITLE17=B.B. King - Ten Long Years
TTITLE18=Roy Hamilton - You Can Have Her
TTITLE19=Tommy Dorsey And His Orchestra - Come Rain Or Come Shine
EXTD=
EXTT0=
EXTT1=
EXTT2=
EXTT3=
EXTT4=
EXTT5=
EXTT6=
EXTT7=
EXTT8=
EXTT9=
EXTT10=
EXTT11=
EXTT12=
EXTT13=
EXTT14=
EXTT15=
EXTT16=
EXTT17=
EXTT18=
EXTT19=
PLAYORDER=
